<svg width="24" height="24" viewBox="0 0 24 24" fill="none" xmlns="http://www.w3.org/2000/svg">
<g clip-path="url(#clip0_1117_2893)">
<path fill-rule="evenodd" clip-rule="evenodd" d="M17.9341 3.20227C17.8203 3.00886 17.5682 2.94255 17.3711 3.05427L10.6241 6.87733C10.4706 6.9644 10.3908 7.13824 10.4265 7.3088L12.6971 18.1994C12.7081 18.2519 12.6854 18.3293 12.651 18.3673L12.3752 18.6727C11.8016 19.3076 11.3157 19.6515 10.3922 19.6515C9.35669 19.6515 8.8705 19.1158 8.10066 18.1689C7.18125 17.0382 6.03722 15.631 3.25568 15.631H3.1869C2.80754 15.631 2.5 15.9329 2.5 16.3052C2.5 16.6775 2.80754 16.9794 3.1869 16.9794H3.25568C5.37573 16.9794 6.17768 17.9657 7.02679 19.0099C7.78521 19.9428 8.64483 21 10.3922 21C11.9007 21 12.7308 20.3113 13.4031 19.5673L15.8829 16.8228C15.8829 16.8227 21.7809 10.2947 21.7809 10.2947C21.8985 10.1645 21.9181 9.97499 21.8294 9.82415L17.9341 3.20227Z" fill="white"/>
</g>
<defs>
<clipPath id="clip0_1117_2893">
<rect width="19.5" height="18" fill="white" transform="translate(2.5 3)"/>
</clipPath>
</defs>
</svg>
